<?xml version="1.0" encoding="UTF-8" standalone="no"?>
<!DOCTYPE svg PUBLIC "-//W3C//DTD SVG 1.1//EN"
 "http://www.w3.org/Graphics/SVG/1.1/DTD/svg11.dtd">
<!-- Generated by graphviz version 2.46.0 (20210118.1747)
 -->
<!-- Title: Manufacturing Document Pages: 1 -->
<svg width="4800pt" height="201pt"
 viewBox="0.00 0.00 576.00 24.17" xmlns="http://www.w3.org/2000/svg" xmlns:xlink="http://www.w3.org/1999/xlink">
<g id="graph0" class="graph" transform="scale(1.33 1.33) rotate(0) translate(4 148)">
<title>Manufacturing Document</title>
<polygon fill="white" stroke="transparent" points="-4,4 -4,-148 3618,-148 3618,4 -4,4"/>
<!-- DS&#45;001&#45;0001 -->
<g id="node1" class="node">
<title>DS&#45;001&#45;0001</title>
<polygon fill="lightgrey" stroke="transparent" points="2166,-54 1448,-54 1448,0 2166,0 2166,-54"/>
<polygon fill="BLUE" stroke="transparent" points="1448,0 1448,-54 1723,-54 1723,0 1448,0"/>
<polygon fill="none" stroke="WHITE" points="1448,0 1448,-54 1723,-54 1723,0 1448,0"/>
<text text-anchor="start" x="1453" y="-17" font-family="Courier New" font-size="40.00">DS&#45;001&#45;0001</text>
<polygon fill="BLUE" stroke="transparent" points="1723,0 1723,-54 2166,-54 2166,0 1723,0"/>
<polygon fill="none" stroke="WHITE" points="1723,0 1723,-54 2166,-54 2166,0 1723,0"/>
<text text-anchor="start" x="1728" y="-17" font-family="Courier New" font-size="40.00">RCVD Hull Complete</text>
</g>
<!-- DS&#45;001&#45;0002 -->
<g id="node2" class="node">
<title>DS&#45;001&#45;0002</title>
<polygon fill="lightgrey" stroke="transparent" points="478,-144 0,-144 0,-90 478,-90 478,-144"/>
<polygon fill="BLUE" stroke="transparent" points="0,-90 0,-144 275,-144 275,-90 0,-90"/>
<polygon fill="none" stroke="WHITE" points="0,-90 0,-144 275,-144 275,-90 0,-90"/>
<text text-anchor="start" x="5" y="-107" font-family="Courier New" font-size="40.00">DS&#45;001&#45;0002</text>
<polygon fill="BLUE" stroke="transparent" points="275,-90 275,-144 478,-144 478,-90 275,-90"/>
<polygon fill="none" stroke="WHITE" points="275,-90 275,-144 478,-144 478,-90 275,-90"/>
<text text-anchor="start" x="280" y="-107" font-family="Courier New" font-size="40.00">RCVD Lid</text>
</g>
<!-- DS&#45;001&#45;0002&#45;&gt;DS&#45;001&#45;0001 -->
<g id="edge1" class="edge">
<title>DS&#45;001&#45;0002&#45;&gt;DS&#45;001&#45;0001</title>
<path fill="none" stroke="black" d="M478.21,-90.68C481.15,-90.45 484.09,-90.22 487,-90 807.58,-65.69 1172.72,-49.41 1437.58,-39.66"/>
<polygon fill="black" stroke="black" points="1437.89,-43.15 1447.75,-39.29 1437.63,-36.16 1437.89,-43.15"/>
</g>
<!-- DS&#45;001&#45;0003 -->
<g id="node3" class="node">
<title>DS&#45;001&#45;0003</title>
<polygon fill="lightgrey" stroke="transparent" points="1502,-144 496,-144 496,-90 1502,-90 1502,-144"/>
<polygon fill="BLUE" stroke="transparent" points="496,-90 496,-144 771,-144 771,-90 496,-90"/>
<polygon fill="none" stroke="WHITE" points="496,-90 496,-144 771,-144 771,-90 496,-90"/>
<text text-anchor="start" x="501" y="-107" font-family="Courier New" font-size="40.00">DS&#45;001&#45;0003</text>
<polygon fill="BLUE" stroke="transparent" points="771,-90 771,-144 1502,-144 1502,-90 771,-90"/>
<polygon fill="none" stroke="WHITE" points="771,-90 771,-144 1502,-144 1502,-90 771,-90"/>
<text text-anchor="start" x="776" y="-107" font-family="Courier New" font-size="40.00">RCVD Hull electronics complete</text>
</g>
<!-- DS&#45;001&#45;0003&#45;&gt;DS&#45;001&#45;0001 -->
<g id="edge2" class="edge">
<title>DS&#45;001&#45;0003&#45;&gt;DS&#45;001&#45;0001</title>
<path fill="none" stroke="black" d="M1237.87,-89.98C1338.65,-79.01 1455.98,-66.23 1557.84,-55.14"/>
<polygon fill="black" stroke="black" points="1558.4,-58.6 1567.96,-54.03 1557.64,-51.64 1558.4,-58.6"/>
</g>
<!-- DS&#45;001&#45;0004 -->
<g id="node4" class="node">
<title>DS&#45;001&#45;0004</title>
<polygon fill="lightgrey" stroke="transparent" points="2094,-144 1520,-144 1520,-90 2094,-90 2094,-144"/>
<polygon fill="BLUE" stroke="transparent" points="1520,-90 1520,-144 1795,-144 1795,-90 1520,-90"/>
<polygon fill="none" stroke="WHITE" points="1520,-90 1520,-144 1795,-144 1795,-90 1520,-90"/>
<text text-anchor="start" x="1525" y="-107" font-family="Courier New" font-size="40.00">DS&#45;001&#45;0004</text>
<polygon fill="BLUE" stroke="transparent" points="1795,-90 1795,-144 2094,-144 2094,-90 1795,-90"/>
<polygon fill="none" stroke="WHITE" points="1795,-90 1795,-144 2094,-144 2094,-90 1795,-90"/>
<text text-anchor="start" x="1800" y="-107" font-family="Courier New" font-size="40.00">RCVD Payload</text>
</g>
<!-- DS&#45;001&#45;0004&#45;&gt;DS&#45;001&#45;0001 -->
<g id="edge3" class="edge">
<title>DS&#45;001&#45;0004&#45;&gt;DS&#45;001&#45;0001</title>
<path fill="none" stroke="black" d="M1807,-89.6C1807,-81.61 1807,-72.69 1807,-64.18"/>
<polygon fill="black" stroke="black" points="1810.5,-64.08 1807,-54.08 1803.5,-64.08 1810.5,-64.08"/>
</g>
<!-- DS&#45;001&#45;0005 -->
<g id="node5" class="node">
<title>DS&#45;001&#45;0005</title>
<polygon fill="lightgrey" stroke="transparent" points="2734,-144 2112,-144 2112,-90 2734,-90 2734,-144"/>
<polygon fill="BLUE" stroke="transparent" points="2112,-90 2112,-144 2387,-144 2387,-90 2112,-90"/>
<polygon fill="none" stroke="WHITE" points="2112,-90 2112,-144 2387,-144 2387,-90 2112,-90"/>
<text text-anchor="start" x="2117" y="-107" font-family="Courier New" font-size="40.00">DS&#45;001&#45;0005</text>
<polygon fill="BLUE" stroke="transparent" points="2387,-90 2387,-144 2734,-144 2734,-90 2387,-90"/>
<polygon fill="none" stroke="WHITE" points="2387,-90 2387,-144 2734,-144 2734,-90 2387,-90"/>
<text text-anchor="start" x="2392" y="-107" font-family="Courier New" font-size="40.00">RCVD Packaging</text>
</g>
<!-- DS&#45;001&#45;0005&#45;&gt;DS&#45;001&#45;0001 -->
<g id="edge4" class="edge">
<title>DS&#45;001&#45;0005&#45;&gt;DS&#45;001&#45;0001</title>
<path fill="none" stroke="black" d="M2240.68,-89.95C2164.71,-79.1 2076.43,-66.49 1999.42,-55.49"/>
<polygon fill="black" stroke="black" points="1999.51,-51.97 1989.12,-54.02 1998.52,-58.9 1999.51,-51.97"/>
</g>
<!-- DS&#45;001&#45;0006 -->
<g id="node6" class="node">
<title>DS&#45;001&#45;0006</title>
<polygon fill="lightgrey" stroke="transparent" points="3614,-144 2752,-144 2752,-90 3614,-90 3614,-144"/>
<polygon fill="BLUE" stroke="transparent" points="2752,-90 2752,-144 3027,-144 3027,-90 2752,-90"/>
<polygon fill="none" stroke="WHITE" points="2752,-90 2752,-144 3027,-144 3027,-90 2752,-90"/>
<text text-anchor="start" x="2757" y="-107" font-family="Courier New" font-size="40.00">DS&#45;001&#45;0006</text>
<polygon fill="BLUE" stroke="transparent" points="3027,-90 3027,-144 3614,-144 3614,-90 3027,-90"/>
<polygon fill="none" stroke="WHITE" points="3027,-90 3027,-144 3614,-144 3614,-90 3027,-90"/>
<text text-anchor="start" x="3032" y="-107" font-family="Courier New" font-size="40.00">RCVD Stabilization discs</text>
</g>
<!-- DS&#45;001&#45;0006&#45;&gt;DS&#45;001&#45;0001 -->
<g id="edge5" class="edge">
<title>DS&#45;001&#45;0006&#45;&gt;DS&#45;001&#45;0001</title>
<path fill="none" stroke="black" d="M2776.2,-89.98C2586.12,-77.83 2361.45,-63.46 2176.3,-51.62"/>
<polygon fill="black" stroke="black" points="2176.33,-48.11 2166.12,-50.97 2175.88,-55.1 2176.33,-48.11"/>
</g>
</g>
</svg>
